<svg width="13" height="13" viewBox="0 0 13 13" fill="#8899a7" xmlns="http://www.w3.org/2000/svg">
  <path d="M1.576 4.875H0V13h1.576c.435 0 .788-.364.788-.813v-6.5c0-.448-.353-.812-.788-.812zM12.606 6.5l-.788 5.688c-.086.532-.354.812-.788.812H6.303c-.788 0-1.576-.813-2.364-.813H3.15V6.5c.032-.506.336-.95.787-1.154C5.373 4.7 6.3 3.24 6.302 1.626V.812c0-.45.353-.813.788-.813h.79c.434 0 .787.364.787.813v4.875h3.15c.214-.015.423.066.574.222.152.155.23.37.216.59z" fill="#8899a7" fill-rule="evenodd"></path>
</svg>
